<svg width="87" height="79" viewBox="0 0 87 79" fill="none" xmlns="http://www.w3.org/2000/svg">
<path d="M77.625 63H68.6875V31C68.6875 30.375 68.5625 29.7917 68.3125 29.25C68.0833 28.7083 67.7604 28.2396 67.3438 27.8438C66.9479 27.4271 66.4792 27.1042 65.9375 26.875C65.3958 26.6458 64.8125 26.5312 64.1875 26.5312C63.5625 26.5312 62.9792 26.6458 62.4375 26.875C61.8958 27.1042 61.4167 27.4271 61 27.8438C60.6042 28.2396 60.2917 28.7083 60.0625 29.25C59.8333 29.7917 59.7188 30.375 59.7188 31V63H50.75V31C50.75 30.375 50.6354 29.7917 50.4062 29.25C50.1771 28.7083 49.8542 28.2396 49.4375 27.8438C49.0417 27.4271 48.5729 27.1042 48.0312 26.875C47.4896 26.6458 46.9062 26.5312 46.2812 26.5312C45.6562 26.5312 45.0729 26.6458 44.5312 26.875C43.9896 27.1042 43.5104 27.4271 43.0938 27.8438C42.6979 28.2396 42.3854 28.7083 42.1562 29.25C41.9271 29.7917 41.8125 30.375 41.8125 31V63H32.8438V31C32.8438 29.1458 33.1875 27.4062 33.875 25.7812C34.5833 24.1354 35.5417 22.7083 36.75 21.5C37.9792 20.2708 39.4062 19.3125 41.0312 18.625C42.6771 17.9167 44.4271 17.5625 46.2812 17.5625C47.9479 17.5625 49.5521 17.8646 51.0938 18.4688C52.6354 19.0521 54.0208 19.9062 55.25 21.0312C56.4792 19.9062 57.8542 19.0521 59.375 18.4688C60.9167 17.8646 62.5208 17.5625 64.1875 17.5625C66.0417 17.5625 67.7812 17.9167 69.4062 18.625C71.0521 19.3125 72.4792 20.2708 73.6875 21.5C74.9167 22.7083 75.875 24.1354 76.5625 25.7812C77.2708 27.4062 77.625 29.1458 77.625 31V63Z" fill="black"/>
<path d="M13.125 27.1562V45.0938H22.0938C23.3229 45.0938 24.4792 44.8646 25.5625 44.4062C26.6458 43.9271 27.5938 43.2812 28.4062 42.4688C29.2188 41.6562 29.8542 40.7083 30.3125 39.625C30.7917 38.5208 31.0312 37.3542 31.0312 36.125C31.0312 34.8958 30.7917 33.7396 30.3125 32.6562C29.8542 31.5521 29.2188 30.5938 28.4062 29.7812C27.5938 28.9688 26.6458 28.3333 25.5625 27.875C24.4792 27.3958 23.3229 27.1562 22.0938 27.1562H13.125ZM13.125 63H4.15625V18.1875H22.0938C23.7396 18.1875 25.3229 18.4062 26.8438 18.8438C28.3646 19.2604 29.7812 19.8646 31.0938 20.6562C32.4271 21.4271 33.6354 22.3646 34.7188 23.4688C35.8229 24.5521 36.7604 25.7604 37.5312 27.0938C38.3229 28.4271 38.9271 29.8542 39.3438 31.375C39.7812 32.8958 40 34.4792 40 36.125C40 38.5833 39.5312 40.9062 38.5938 43.0938C37.6562 45.2604 36.375 47.1562 34.75 48.7812C33.125 50.4062 31.2188 51.6875 29.0312 52.625C26.8646 53.5625 24.5521 54.0312 22.0938 54.0312H13.125V63Z" fill="black"/>
</svg>
