<svg width="22" height="22" viewBox="0 0 22 22" fill="none" xmlns="http://www.w3.org/2000/svg">
<g clip-path="url(#clip0_1481_890)">
<path d="M11 7.33268C12.0083 7.33268 12.8333 6.50768 12.8333 5.49935C12.8333 4.49102 12.0083 3.66602 11 3.66602C9.99163 3.66602 9.16663 4.49102 9.16663 5.49935C9.16663 6.50768 9.99163 7.33268 11 7.33268ZM11 9.16602C9.99163 9.16602 9.16663 9.99102 9.16663 10.9993C9.16663 12.0077 9.99163 12.8327 11 12.8327C12.0083 12.8327 12.8333 12.0077 12.8333 10.9993C12.8333 9.99102 12.0083 9.16602 11 9.16602ZM11 14.666C9.99163 14.666 9.16663 15.491 9.16663 16.4993C9.16663 17.5077 9.99163 18.3327 11 18.3327C12.0083 18.3327 12.8333 17.5077 12.8333 16.4993C12.8333 15.491 12.0083 14.666 11 14.666Z" fill="#373737"/>
</g>
<defs>
<clipPath id="clip0_1481_890">
<rect width="22" height="22" fill="white"/>
</clipPath>
</defs>
</svg>
